<svg xmlns="http://www.w3.org/2000/svg" viewBox="0 0 60 60" width="48" height="48">
  <!-- Row 0: Cyan line (full width) -->
  <rect x="0" y="0" width="5" height="4" fill="#00D9FF"/>
  <rect x="6" y="0" width="5" height="4" fill="#00D9FF"/>
  <rect x="12" y="0" width="5" height="4" fill="#00D9FF"/>
  <rect x="18" y="0" width="5" height="4" fill="#00D9FF"/>
  <rect x="24" y="0" width="5" height="4" fill="#00D9FF"/>
  <rect x="30" y="0" width="5" height="4" fill="#00D9FF"/>
  <rect x="36" y="0" width="5" height="4" fill="#00D9FF"/>
  <rect x="42" y="0" width="5" height="4" fill="#00D9FF"/>
  <rect x="48" y="0" width="5" height="4" fill="#00D9FF"/>
  <rect x="54" y="0" width="5" height="4" fill="#00D9FF"/>

  <!-- Row 2: Magenta line (indented) -->
  <rect x="12" y="10" width="5" height="4" fill="#FF00FF"/>
  <rect x="18" y="10" width="5" height="4" fill="#FF00FF"/>
  <rect x="24" y="10" width="5" height="4" fill="#FF00FF"/>
  <rect x="30" y="10" width="5" height="4" fill="#FF00FF"/>
  <rect x="36" y="10" width="5" height="4" fill="#FF00FF"/>
  <rect x="42" y="10" width="5" height="4" fill="#FF00FF"/>
  <rect x="48" y="10" width="5" height="4" fill="#FF00FF"/>

  <!-- Row 4: Yellow line (more indented) -->
  <rect x="24" y="20" width="5" height="4" fill="#FFFF00"/>
  <rect x="30" y="20" width="5" height="4" fill="#FFFF00"/>
  <rect x="36" y="20" width="5" height="4" fill="#FFFF00"/>
  <rect x="42" y="20" width="5" height="4" fill="#FFFF00"/>
  <rect x="48" y="20" width="5" height="4" fill="#FFFF00"/>
  <rect x="54" y="20" width="5" height="4" fill="#FFFF00"/>

  <!-- Row 6: Green line (indented) -->
  <rect x="12" y="30" width="5" height="4" fill="#00FF00"/>
  <rect x="18" y="30" width="5" height="4" fill="#00FF00"/>
  <rect x="24" y="30" width="5" height="4" fill="#00FF00"/>
  <rect x="30" y="30" width="5" height="4" fill="#00FF00"/>
  <rect x="36" y="30" width="5" height="4" fill="#00FF00"/>

  <!-- Row 8: Cyan line (right side) -->
  <rect x="36" y="40" width="5" height="4" fill="#00D9FF"/>
  <rect x="42" y="40" width="5" height="4" fill="#00D9FF"/>
  <rect x="48" y="40" width="5" height="4" fill="#00D9FF"/>
  <rect x="54" y="40" width="5" height="4" fill="#00D9FF"/>

  <!-- Row 10: Magenta line (indented) -->
  <rect x="12" y="50" width="5" height="4" fill="#FF00FF"/>
  <rect x="18" y="50" width="5" height="4" fill="#FF00FF"/>
  <rect x="24" y="50" width="5" height="4" fill="#FF00FF"/>
  <rect x="30" y="50" width="5" height="4" fill="#FF00FF"/>
  <rect x="36" y="50" width="5" height="4" fill="#FF00FF"/>
  <rect x="42" y="50" width="5" height="4" fill="#FF00FF"/>
</svg>
